<?xml version="1.0" standalone="no"?>
<!DOCTYPE svg PUBLIC "-//W3C//DTD SVG 20010904//EN"
 "http://www.w3.org/TR/2001/REC-SVG-20010904/DTD/svg10.dtd">
<svg version="1.0" xmlns="http://www.w3.org/2000/svg"
 width="63.000000pt" height="135.000000pt" viewBox="0 0 63.000000 135.000000"
 preserveAspectRatio="xMidYMid meet">

<g transform="translate(0.000000,135.000000) scale(0.100000,-0.100000)"
fill="#000000" stroke="none">
<path d="M472 1178 c-75 -132 -102 -191 -122 -277 l-13 -54 -36 94 c-20 52
-55 121 -78 154 -59 85 -129 156 -148 149 -25 -10 -18 -23 50 -100 35 -41 77
-96 91 -122 15 -26 37 -58 48 -72 14 -16 15 -20 4 -11 -17 12 -17 10 -2 -40 9
-30 25 -77 35 -104 12 -33 18 -71 16 -112 -1 -46 2 -66 14 -78 15 -15 17 -15
22 7 3 12 11 61 17 108 27 200 50 270 140 424 56 97 64 115 61 144 -3 36 -36
-1 -99 -110z"/>
</g>
</svg>
